<svg xmlns="http://www.w3.org/2000/svg" xmlns:xlink="http://www.w3.org/1999/xlink" viewBox="0 0 6560.2 1677.3"><defs><style>      .cls-1 {        fill: #323232;      }      .cls-2 {        fill: url(#linear-gradient);      }      .cls-3 {        fill: #f58b1f;      }      .cls-4 {        fill: #3a3a3a;      }      .cls-5 {        isolation: isolate;      }      .cls-6 {        fill: #f89825;      }    </style><linearGradient id="linear-gradient" x1="690" y1="186.4" x2="672.3" y2="917.9" gradientTransform="translate(0 1655.4) scale(1 -1)" gradientUnits="userSpaceOnUse"><stop offset="0" stop-color="#faa63f" stop-opacity="0"></stop><stop offset="1" stop-color="#faa63f"></stop></linearGradient></defs><g><g id="Layer_1"><g id="Layer_1-2" data-name="Layer_1"><g><g><path class="cls-3" d="M1420.2,938.8V337h178.2l62.1,346.2,63.1-346.2h177.2v601.8h-124.2v-433.8l-68.2,433.8h-95.7l-68.2-433.8v433.8h-124.3Z"></path><path class="cls-3" d="M2138.2,946.9c-35.3,0-65.5-4.1-90.6-12.2s-44.5-24.6-58-49.4-20.4-62.3-20.4-112.5v-204.7c0-53.6,14.4-90.8,43.3-111.5,28.8-20.7,70.8-31.1,125.8-31.1s96.7,10.2,125.2,30.6,42.8,57.7,42.8,112v203.7c0,50.9-6.6,88.8-19.9,113.5-13.2,24.8-32.4,41.2-57.5,49.4s-55.3,12.2-90.6,12.2h-.1ZM2138.2,866.5c9.5,0,16.8-3.2,21.9-9.7s7.6-18.2,7.6-35.1v-270.9c0-15.6-2.4-26.8-7.1-33.6-4.8-6.8-12.2-10.2-22.4-10.2s-17,3.2-22.4,9.7-8.1,17.8-8.1,34.1v270.9c0,17,2.7,28.7,8.1,35.1s12.9,9.7,22.4,9.7Z"></path><path class="cls-3" d="M2573,945.9c-29.9,0-53-6.1-69.2-18.3-16.3-12.2-26.5-23.4-30.5-33.6l-3.1,44.8h-97.8V297.2h138.5v176.2c6.1-11.5,15.8-22.6,29-33.1s32.1-15.8,56.5-15.8,37,3.1,54,9.2,30.9,17.8,41.8,35.1c10.9,17.3,16.3,42.6,16.3,75.9v241.3c0,36.7-3.2,65.7-9.7,87.1s-15.8,37.2-28,47.4-26.7,17-43.3,20.4-34.8,5.1-54.5,5.1h0ZM2540.4,852.2c8.1,0,14.4-1.7,18.8-5.1,4.4-3.4,7.3-8.7,8.7-15.8,1.4-7.1,2-16.1,2-27v-248.5c0-16.3-2.4-27.5-7.1-33.6s-12.2-9.2-22.4-9.2-16.8,3.2-21.9,9.7-7.6,17.1-7.6,32.1v248.5c0,16.3,2.2,28.5,6.6,36.7,4.4,8.2,12,12.2,22.9,12.2h0Z"></path><path class="cls-3" d="M2775.6,938.8v-504.1h138.5v504.1h-138.5ZM2844.3,381.8c-17,0-31.8-5.9-44.3-17.8s-18.8-26.3-18.8-43.3,6.3-31.4,18.8-43.3,27.3-17.8,44.3-17.8,32.8,6,45.3,17.8,18.8,26.3,18.8,43.3-6.3,31.4-18.8,43.3-27.7,17.8-45.3,17.8Z"></path><path class="cls-3" d="M2987.4,938.8V296.2h138.5v642.6h-138.5Z"></path><path class="cls-3" d="M3361.2,946.9c-35.3,0-65.5-3.9-90.6-11.7-25.1-7.8-44.5-24.1-58-48.9s-20.4-62.6-20.4-113.5v-215.9c0-50.9,14.4-85.7,43.3-104.4,28.8-18.7,70.8-28,125.8-28s95.7,9.3,124.2,28,42.8,53.5,42.8,104.4v140.5h-197.6v134.4c0,16.3,2.5,27.5,7.6,33.6s12.7,9.2,22.9,9.2,17.5-3,21.9-9.2,6.6-17.3,6.6-33.6v-85.5h138.5v25.5c0,51.6-6.6,89.8-19.9,114.6-13.2,24.8-32.2,41.1-57,48.9s-54.8,11.7-90.1,11.7h0ZM3330.6,636.3h59.1v-87.6c0-15.6-2.2-26.5-6.6-32.6s-11.7-9.2-21.9-9.2-17.8,3.1-22.9,9.2-7.6,17-7.6,32.6v87.6h-.1Z"></path><path class="cls-1" d="M3590.3,938.8v-504.1h118.1l11.2,63.1c4.8-13.6,12.4-25.1,22.9-34.6s21.9-16.6,34.1-21.4c23.1-11.5,48.5-14.2,76.4-8.1v105.9c-.7-.7-6.1-1.5-16.3-2.5-10.2-1-21.9-1-35.1,0s-24.3,4.9-33.1,11.7c-14.3,7.5-24.5,18.7-30.6,33.6s-9.2,32.6-9.2,53v303.5h-138.5.1Z"></path><path class="cls-1" d="M4060.8,946.9c-35.3,0-65.5-3.9-90.6-11.7-25.1-7.8-44.5-24.1-58-48.9s-20.4-62.6-20.4-113.5v-215.9c0-50.9,14.4-85.7,43.3-104.4,28.8-18.7,70.8-28,125.8-28s95.7,9.3,124.2,28,42.8,53.5,42.8,104.4v140.5h-197.6v134.4c0,16.3,2.5,27.5,7.6,33.6s12.7,9.2,22.9,9.2,17.5-3,21.9-9.2,6.6-17.3,6.6-33.6v-85.5h138.5v25.5c0,51.6-6.6,89.8-19.9,114.6-13.2,24.8-32.2,41.1-57,48.9s-54.8,11.7-90.1,11.7h0ZM4030.2,636.3h59.1v-87.6c0-15.6-2.2-26.5-6.6-32.6s-11.7-9.2-21.9-9.2-17.8,3.1-22.9,9.2-7.6,17-7.6,32.6v87.6h-.1Z"></path><path class="cls-1" d="M4289.9,1056.9V434.7h137.5v37.7c6.8-10.9,16-21.2,27.5-31.1,11.5-9.8,30.5-14.8,57-14.8s39,3.2,56,9.7,30.9,18,41.8,34.6,16.3,40.9,16.3,72.8v242.4c0,41.4-4.6,73.7-13.8,96.7-9.2,23.1-22.2,39.2-39.2,48.4s-37,13.8-60.1,13.8-42.1-4.2-55-12.7-22.8-18.5-29.5-30v154.8h-138.5,0ZM4457.9,867.5c6.1,0,11-.8,14.8-2.5,3.7-1.7,6.8-4.6,9.2-8.7,2.4-4.1,3.9-8.7,4.6-13.8.7-5.1,1-11.4,1-18.8v-267.8c0-7.5-.3-13.9-1-19.3-.7-5.4-2.2-10-4.6-13.8s-5.4-6.6-9.2-8.7-8.7-3.1-14.8-3.1-10,.9-13.8,2.5c-3.7,1.7-6.8,3.9-9.2,6.6s-4.1,5.6-5.1,8.7c-1,3.1-1.5,5.9-1.5,8.6v287.2c0,9.5.8,17.7,2.5,24.5s4.8,11.5,9.2,14.2,10.4,4.1,17.8,4.1h.1Z"></path><path class="cls-1" d="M4782.8,946.9c-18.3,0-35.1-2.5-50.4-7.6s-27.5-14.9-36.7-29.5-13.8-36.2-13.8-64.7v-75.4c0-30.5,9-55.5,27-74.8s47.7-36.2,89.1-50.4c20.4-8.1,36.2-15.1,47.4-20.9,11.2-5.8,19.2-13.2,23.9-22.4,4.8-9.2,7.1-22.2,7.1-39.2v-30.6c0-7.5-1.2-13.6-3.6-18.3s-5.8-8.5-10.2-11.2c-4.4-2.7-9.7-4.1-15.8-4.1-11.5,0-19.4,5.1-23.4,15.3-4.1,10.2-6.1,28.2-6.1,54v42.8h-125.3v-56c0-25.1,3.7-47.3,11.2-66.7s22.2-34.6,44.3-45.8,55.2-16.8,99.3-16.8,79.4,3.6,103.9,10.7,41.6,19.3,51.4,36.7,14.8,40.9,14.8,70.8v396.1h-138.5v-53c-4.8,18.3-16.5,33.1-35.1,44.3s-38.9,16.8-60.6,16.8h.1ZM4843.9,856.3c12.9,0,21.4-5.2,25.5-15.8s6.1-26.3,6.1-47.4v-115.1c-2,4.8-6.6,9-13.8,12.8s-13.8,8-19.8,12.7c-8.8,6.8-15.5,13.6-19.9,20.4s-6.6,16.6-6.6,29.5v57c0,10.2,1,18.7,3,25.5s5.1,11.9,9.2,15.3,9.5,5.1,16.3,5.1h0Z"></path><path class="cls-1" d="M5084.2,938.8v-504.1h138.5v504.1h-138.5ZM5152.9,381.8c-17,0-31.8-5.9-44.3-17.8s-18.8-26.3-18.8-43.3,6.3-31.4,18.8-43.3,27.3-17.8,44.3-17.8,32.8,6,45.3,17.8,18.8,26.3,18.8,43.3-6.3,31.4-18.8,43.3-27.7,17.8-45.3,17.8Z"></path><path class="cls-1" d="M5296,938.8v-504.1h118.1l11.2,63.1c4.8-13.6,12.4-25.1,22.9-34.6s21.9-16.6,34.1-21.4c23.1-11.5,48.5-14.2,76.4-8.1v105.9c-.7-.7-6.1-1.5-16.3-2.5-10.2-1-21.9-1-35.1,0s-24.3,4.9-33.1,11.7c-14.3,7.5-24.5,18.7-30.6,33.6s-9.2,32.6-9.2,53v303.5h-138.5.1Z"></path><path class="cls-1" d="M5693.2,949c-19,0-35.3-6.5-48.9-19.3-13.6-12.9-20.4-28.5-20.4-46.9s6.8-34.9,20.4-47.8,29.9-19.4,48.9-19.4,35.6,6.5,49.9,19.4c14.2,12.9,21.4,28.8,21.4,47.8s-7.1,34-21.4,46.9-30.9,19.3-49.9,19.3Z"></path><path class="cls-1" d="M5857.1,938.8V296.2h138.5v642.6h-138.5Z"></path><path class="cls-1" d="M6068.9,938.8V296.2h138.5v642.6h-138.5ZM6286.9,938.8l-76.4-291.3,91.6-212.8h136.5l-97.8,214.9,95.7,289.2h-149.7,0Z"></path></g><g class="cls-5"><g class="cls-5"><path class="cls-1" d="M1474.4,1423.6v-266.5h-49v-17.3h121.9v17.3h-49.9v266.5h-23Z"></path><path class="cls-1" d="M1623.3,1427.9c-16,0-28.7-1.8-38.2-5.5-9.4-3.7-16.2-10.3-20.4-19.9-4.2-9.6-6.2-23.4-6.2-41.3v-121.5c0-22.1,4.7-37.2,14.2-45.4,9.4-8.2,25.5-12.2,48.3-12.2s38.3,4.1,47.8,12.2c9.4,8.2,14.2,23.3,14.2,45.4v60.5h-101.3v67.7c0,16.6,2.6,28.3,7.9,35,5.3,6.7,16.2,10.1,32.9,10.1s25-3.2,30-9.6c5-6.4,7.4-18.2,7.4-35.5v-28.8h23v21.6c0,17.6-2.1,31.3-6.2,41-4.2,9.8-10.6,16.6-19.2,20.4s-20,5.8-34.1,5.8ZM1581.5,1287.3h78.3v-48c0-14.7-2.5-25.4-7.4-32.2-5-6.7-15.4-10.1-31.4-10.1s-26.2,3.4-31.4,10.1c-5.3,6.7-7.9,17.4-7.9,32.2v48Z"></path><path class="cls-1" d="M1787,1427.9c-15.7,0-28.3-1.8-37.7-5.5-9.4-3.7-16.2-10.2-20.4-19.7-4.2-9.4-6.2-23.1-6.2-41v-120.5c0-23,4.7-38.8,14.2-47.3,9.4-8.5,25.5-12.7,48.2-12.7s38.3,4.2,47.8,12.5c9.4,8.3,14.2,23.7,14.2,46.1v29.8h-23v-30.2c0-15-2.5-26-7.4-32.9-5-6.9-15.4-10.3-31.4-10.3s-26.2,3.4-31.4,10.3c-5.3,6.9-7.9,17.8-7.9,32.9v127.2c0,17,2.6,28.8,7.9,35.5s16.2,10.1,32.9,10.1,25-3.3,30-9.8c5-6.6,7.4-18.5,7.4-35.8v-29.3h23v24.5c0,17.3-2.1,30.7-6.2,40.3-4.2,9.6-10.6,16.3-19.4,20.2-8.8,3.8-20.2,5.8-34.3,5.8Z"></path><path class="cls-1" d="M1893.1,1423.6v-302.5h22.1v83.1c4.2-7,10.1-12.5,17.8-16.3s17.4-5.8,29.3-5.8c17.3,0,29.9,3,37.9,8.9,8,5.9,13.1,13.7,15.4,23.3,2.2,9.6,3.4,19.8,3.4,30.7v178.6h-23v-174.8c0-5.1-.2-10.6-.5-16.3-.3-5.8-1.7-11.2-4.1-16.3-2.4-5.1-6.3-9.3-11.8-12.5-5.4-3.2-13.3-4.8-23.5-4.8s-17.4,1.5-23.3,4.6c-5.9,3-10.2,6.6-12.7,10.6-2.6,4-3.8,7.4-3.8,10.3v199.2h-23Z"></path><path class="cls-1" d="M2068.8,1423.6v-237.6h18.7l3.4,24.5c2.6-9.3,8.6-16.4,18-21.4,9.4-5,19.1-7.4,29-7.4,17.3,0,29.9,3,37.9,9.1,8,6.1,13.1,13.9,15.4,23.5,2.2,9.6,3.4,19.8,3.4,30.7v178.6h-23v-174.8c0-6.1-.2-12.1-.5-18-.3-5.9-1.7-11.3-4.1-16.1s-6.3-8.6-11.8-11.5c-5.4-2.9-13.3-4.3-23.5-4.3s-16.7,1.7-22.3,5c-5.6,3.4-9.6,7.4-12,12-2.4,4.6-4.2,9-5.5,13.2v194.4h-23Z"></path><path class="cls-1" d="M2301.2,1427c-14.7,0-26.7-2-36-6-9.3-4-16.1-11-20.4-20.9-4.3-9.9-6.5-23.4-6.5-40.3v-113.8c0-22.7,4.7-39,14.2-49,9.4-9.9,25.7-14.9,48.7-14.9s39.2,4.9,48.5,14.6c9.3,9.8,13.9,26.2,13.9,49.2v113.8c0,16.6-2.1,29.9-6.2,39.8-4.2,9.9-10.8,17-19.9,21.1-9.1,4.2-21.2,6.2-36.2,6.2ZM2301.2,1411.6c14.4,0,24.6-3.5,30.5-10.6,5.9-7,8.9-19.8,8.9-38.4v-116.7c0-17.3-2.9-29.7-8.6-37.2-5.8-7.5-16-11.3-30.7-11.3s-24.7,3.6-30.7,10.8c-6.1,7.2-9.1,19.8-9.1,37.7v116.7c0,18.2,3,31,9.1,38.2,6.1,7.2,16.3,10.8,30.7,10.8Z"></path><path class="cls-1" d="M2411.6,1423.6v-304.9h22.6v304.9h-22.6Z"></path><path class="cls-1" d="M2545.5,1427c-14.7,0-26.7-2-36-6-9.3-4-16.1-11-20.4-20.9-4.3-9.9-6.5-23.4-6.5-40.3v-113.8c0-22.7,4.7-39,14.2-49,9.4-9.9,25.7-14.9,48.7-14.9s39.2,4.9,48.5,14.6c9.3,9.8,13.9,26.2,13.9,49.2v113.8c0,16.6-2.1,29.9-6.2,39.8-4.2,9.9-10.8,17-19.9,21.1-9.1,4.2-21.2,6.2-36.2,6.2ZM2545.5,1411.6c14.4,0,24.6-3.5,30.5-10.6,5.9-7,8.9-19.8,8.9-38.4v-116.7c0-17.3-2.9-29.7-8.6-37.2-5.8-7.5-16-11.3-30.7-11.3s-24.7,3.6-30.7,10.8c-6.1,7.2-9.1,19.8-9.1,37.7v116.7c0,18.2,3,31,9.1,38.2,6.1,7.2,16.3,10.8,30.7,10.8Z"></path><path class="cls-1" d="M2706.4,1479.8c-3.5,0-7.4-.2-11.8-.5-4.3-.3-8.6-.7-12.7-1.2-4.2-.5-7.8-.9-10.8-1.2-3-.3-5-.6-6-1v-13.9c3.8.3,9.2,1,16.1,1.9,6.9,1,13.2,1.4,19,1.4s9.1-.3,14.9-1c5.8-.6,11.4-2.5,16.8-5.5,5.4-3,10.1-8.2,13.9-15.4,3.8-7.2,5.8-17.4,5.8-30.5v-32.2c-2.2,6.7-5.5,12.5-9.8,17.3-4.3,4.8-9.7,8.5-16.1,11-6.4,2.6-13.9,3.8-22.6,3.8s-11.8-.6-18-1.7c-6.2-1.1-12-3.5-17.3-7.2-5.3-3.7-9.6-9.6-13-17.8-3.4-8.2-5-19.4-5-33.8v-111.9c0-21.4,4.1-36.7,12.2-45.8s21.7-13.7,40.6-13.7,15.9,1.1,22.8,3.4c6.9,2.2,12.9,5.5,18,9.8,5.1,4.3,9,10,11.5,17l-4.3-.5,3.8-25h19.7v221.3c0,12.8-1.7,23.8-5,32.9-3.4,9.1-8,16.6-13.9,22.3-5.9,5.8-13,10.1-21.4,13-8.3,2.9-17.4,4.3-27.4,4.3ZM2709.7,1397.7c11.8,0,20.7-3,26.6-8.9,5.9-5.9,9.8-13.4,11.8-22.6,1.9-9.1,2.9-18.2,2.9-27.1v-115.7c-1.3-3.5-3.4-7.3-6.2-11.3-2.9-4-7.1-7.4-12.7-10.3-5.6-2.9-13.2-4.3-22.8-4.3s-22.5,3.1-28.1,9.4c-5.6,6.2-8.4,17.8-8.4,34.8v116.2c0,9.3,1.3,16.6,3.8,22.1,2.6,5.4,5.9,9.4,10.1,11.8,4.2,2.4,8.3,4,12.5,4.8,4.2.8,7.7,1.2,10.6,1.2Z"></path><path class="cls-1" d="M2836.5,1155.7c-4.2,0-7.7-1.4-10.6-4.3s-4.3-6.2-4.3-10.1,1.4-7.5,4.3-10.1c2.9-2.6,6.4-3.8,10.6-3.8s7.3,1.3,10.3,3.8c3,2.6,4.6,5.9,4.6,10.1s-1.5,7.2-4.6,10.1c-3,2.9-6.5,4.3-10.3,4.3ZM2824.9,1423.6v-237.6h22.6v237.6h-22.6Z"></path><path class="cls-1" d="M2960.3,1427.9c-15.7,0-28.3-1.8-37.7-5.5-9.4-3.7-16.2-10.2-20.4-19.7-4.2-9.4-6.2-23.1-6.2-41v-120.5c0-23,4.7-38.8,14.2-47.3,9.4-8.5,25.5-12.7,48.3-12.7s38.3,4.2,47.8,12.5c9.4,8.3,14.2,23.7,14.2,46.1v29.8h-23v-30.2c0-15-2.5-26-7.4-32.9-5-6.9-15.4-10.3-31.4-10.3s-26.2,3.4-31.4,10.3c-5.3,6.9-7.9,17.8-7.9,32.9v127.2c0,17,2.6,28.8,7.9,35.5s16.2,10.1,32.9,10.1,25-3.3,30-9.8c5-6.6,7.4-18.5,7.4-35.8v-29.3h23v24.5c0,17.3-2.1,30.7-6.2,40.3-4.2,9.6-10.6,16.3-19.4,20.2-8.8,3.8-20.2,5.8-34.3,5.8Z"></path><path class="cls-1" d="M3109.6,1427c-7,0-14.3-1-21.8-2.9-7.5-1.9-14-6.7-19.4-14.4-5.4-7.7-8.2-19.8-8.2-36.5v-20.6c0-16.3,5-29.4,14.9-39.4s23.2-18.9,39.8-26.9c10.9-5.4,20-10.4,27.4-14.9,7.4-4.5,12.9-9.4,16.6-14.9,3.7-5.4,5.5-12.3,5.5-20.6v-9.6c0-8.6-1.8-15.1-5.3-19.4-3.5-4.3-8.2-7.3-14.2-8.9-5.9-1.6-12.1-2.4-18.5-2.4-16,0-26.6,4.2-31.7,12.5-5.1,8.3-7.7,20.3-7.7,36v20.2h-20.6v-22.1c0-11.8,1.5-22.3,4.6-31.4,3-9.1,8.9-16.3,17.5-21.6,8.6-5.3,21.3-7.9,37.9-7.9s31.2,2.2,39.8,6.5c8.6,4.3,14.3,10.2,17,17.8,2.7,7.5,4.1,16.2,4.1,26.2v192h-22.6l-.5-30.7c-4.2,11.5-11.4,20.1-21.6,25.7-10.2,5.6-21.3,8.4-33.1,8.4ZM3117.3,1410.7c16.3,0,28.2-5.5,35.5-16.6,7.4-11,11-25.8,11-44.4v-79.7c-3.5,5.8-9.4,11-17.5,15.6-8.2,4.6-16.6,9.2-25.2,13.7-12.2,7-21.6,14.2-28.3,21.6-6.7,7.4-10.1,17.8-10.1,31.2v17.3c0,12.8,1.8,22.2,5.5,28.1,3.7,5.9,8.2,9.6,13.7,11,5.4,1.4,10.6,2.2,15.4,2.2Z"></path><path class="cls-1" d="M3237.8,1423.6v-304.9h22.6v304.9h-22.6Z"></path><path class="cls-1" d="M3458.7,1427.5c-17.3,0-29.8-3-37.7-9.1-7.8-6.1-12.9-13.9-15.1-23.5-2.2-9.6-3.4-19.7-3.4-30.2v-178.6h23v174.3c0,8,.4,15.8,1.2,23.3.8,7.5,4,13.8,9.6,18.7,5.6,5,15.1,7.4,28.6,7.4s17.1-1.7,22.6-5c5.4-3.4,9.5-7.4,12.2-12,2.7-4.6,4.4-8.7,5-12.2v-194.4h23v237.6h-19.7l-1.9-25c-2.6,7.4-7.7,14-15.4,19.9s-18.4,8.9-32.2,8.9Z"></path><path class="cls-1" d="M3582.5,1423.6v-237.6h18.7l3.4,24.5c2.6-9.3,8.6-16.4,18-21.4,9.4-5,19.1-7.4,29-7.4,17.3,0,29.9,3,37.9,9.1,8,6.1,13.1,13.9,15.4,23.5,2.2,9.6,3.4,19.8,3.4,30.7v178.6h-23v-174.8c0-6.1-.2-12.1-.5-18-.3-5.9-1.7-11.3-4.1-16.1s-6.3-8.6-11.8-11.5c-5.4-2.9-13.3-4.3-23.5-4.3s-16.7,1.7-22.3,5c-5.6,3.4-9.6,7.4-12,12-2.4,4.6-4.2,9-5.5,13.2v194.4h-23Z"></path><path class="cls-1" d="M3769.8,1155.7c-4.2,0-7.7-1.4-10.6-4.3-2.9-2.9-4.3-6.2-4.3-10.1s1.4-7.5,4.3-10.1c2.9-2.6,6.4-3.8,10.6-3.8s7.3,1.3,10.3,3.8c3,2.6,4.6,5.9,4.6,10.1s-1.5,7.2-4.6,10.1c-3,2.9-6.5,4.3-10.3,4.3ZM3758.2,1423.6v-237.6h22.6v237.6h-22.6Z"></path><path class="cls-1" d="M3872.5,1423.6l-56.7-237.6h23.5l48.5,211.2h-1.4l45.6-211.2h22.1l-54.7,237.6h-26.9Z"></path><path class="cls-1" d="M4043.9,1427.9c-16,0-28.7-1.8-38.2-5.5-9.4-3.7-16.2-10.3-20.4-19.9-4.2-9.6-6.2-23.4-6.2-41.3v-121.5c0-22.1,4.7-37.2,14.2-45.4,9.4-8.2,25.5-12.2,48.2-12.2s38.3,4.1,47.8,12.2c9.4,8.2,14.2,23.3,14.2,45.4v60.5h-101.3v67.7c0,16.6,2.6,28.3,7.9,35,5.3,6.7,16.2,10.1,32.9,10.1s25-3.2,30-9.6c5-6.4,7.4-18.2,7.4-35.5v-28.8h23v21.6c0,17.6-2.1,31.3-6.2,41-4.2,9.8-10.6,16.6-19.2,20.4-8.6,3.8-20,5.8-34.1,5.8ZM4002.1,1287.3h78.3v-48c0-14.7-2.5-25.4-7.4-32.2-5-6.7-15.4-10.1-31.4-10.1s-26.2,3.4-31.4,10.1c-5.3,6.7-7.9,17.4-7.9,32.2v48Z"></path><path class="cls-1" d="M4149.5,1423.6v-237.6h19.2l2.9,25c3.8-9.6,10-16.3,18.5-20.2,8.5-3.8,17-6.1,25.7-6.7,8.6-1.3,16.6-1.1,24,.5v18.2c-1.6-.3-3.8-.6-6.5-1-2.7-.3-5.7-.5-8.9-.5s-6.4.5-9.6,1.4c-11.8.6-21.8,4.2-30,10.8-8.2,6.6-12.2,15.6-12.2,27.1v182.9h-23Z"></path><path class="cls-1" d="M4321.9,1426.5c-16.3,0-29.1-2-38.4-6-9.3-4-15.7-10.6-19.2-19.9-3.5-9.3-5.3-21.6-5.3-37v-21.1h23v26.9c0,16.3,2.9,27.5,8.6,33.6,5.8,6.1,16.2,9.1,31.2,9.1s22.8-3.2,29-9.6c6.2-6.4,9.4-17.1,9.4-32.2v-12c0-7.4-1.1-13.8-3.4-19.4-2.2-5.6-6.4-10.8-12.5-15.6-6.1-4.8-15-9.4-26.9-13.9-10.9-4.5-20.4-9.2-28.6-14.2-8.2-5-14.6-11.1-19.2-18.5-4.6-7.4-7-16.8-7-28.3v-14.9c0-15.7,4.6-28.2,13.9-37.4s25-13.9,47-13.9,26,2,34.8,6c8.8,4,15.4,10.5,19.7,19.4,4.3,9,6.5,20.8,6.5,35.5v21.1h-22.6v-22.6c0-17.3-3.1-29.1-9.4-35.5-6.2-6.4-15.8-9.6-28.6-9.6s-25.2,3.5-30.5,10.6c-5.3,7-7.9,15.7-7.9,25.9v12c0,9.3,1.9,17,5.8,23,3.8,6.1,9.5,11.2,17,15.4,7.5,4.2,16.9,8.5,28.1,13,9.3,3.8,17.5,8,24.7,12.5,7.2,4.5,12.9,10.4,17,17.8,4.2,7.4,6.2,17.6,6.2,30.7v10.1c0,12.5-1.9,23.1-5.8,31.9-3.8,8.8-10.3,15.5-19.4,20.2s-21.7,7-37.7,7Z"></path><path class="cls-1" d="M4489.9,1427.9c-16,0-28.7-1.8-38.2-5.5-9.4-3.7-16.2-10.3-20.4-19.9-4.2-9.6-6.2-23.4-6.2-41.3v-121.5c0-22.1,4.7-37.2,14.2-45.4,9.4-8.2,25.5-12.2,48.2-12.2s38.3,4.1,47.8,12.2c9.4,8.2,14.2,23.3,14.2,45.4v60.5h-101.3v67.7c0,16.6,2.6,28.3,7.9,35,5.3,6.7,16.2,10.1,32.9,10.1s25-3.2,30-9.6c5-6.4,7.4-18.2,7.4-35.5v-28.8h23v21.6c0,17.6-2.1,31.3-6.2,41-4.2,9.8-10.6,16.6-19.2,20.4-8.6,3.8-20,5.8-34.1,5.8ZM4448.1,1287.3h78.3v-48c0-14.7-2.5-25.4-7.4-32.2-5-6.7-15.4-10.1-31.4-10.1s-26.2,3.4-31.4,10.1c-5.3,6.7-7.9,17.4-7.9,32.2v48Z"></path><path class="cls-1" d="M4743.4,1427c-14.7,0-26.7-2-36-6-9.3-4-16.1-11-20.4-20.9-4.3-9.9-6.5-23.4-6.5-40.3v-113.8c0-22.7,4.7-39,14.2-49,9.4-9.9,25.7-14.9,48.7-14.9s39.2,4.9,48.5,14.6c9.3,9.8,13.9,26.2,13.9,49.2v113.8c0,16.6-2.1,29.9-6.2,39.8-4.2,9.9-10.8,17-19.9,21.1-9.1,4.2-21.2,6.2-36.2,6.2ZM4743.4,1411.6c14.4,0,24.6-3.5,30.5-10.6,5.9-7,8.9-19.8,8.9-38.4v-116.7c0-17.3-2.9-29.7-8.6-37.2-5.8-7.5-16-11.3-30.7-11.3s-24.7,3.6-30.7,10.8c-6.1,7.2-9.1,19.8-9.1,37.7v116.7c0,18.2,3,31,9.1,38.2,6.1,7.2,16.3,10.8,30.7,10.8Z"></path><path class="cls-1" d="M4853.8,1423.6v-213.6h-15.4v-14.9h15.4v-30.7c0-8,.9-14.9,2.6-20.6,1.8-5.8,4.4-10.5,7.9-14.2,3.5-3.7,7.8-6.4,13-8.2,5.1-1.8,10.7-2.6,16.8-2.6s9.7,0,14.6.2c5,.2,9.6.5,13.9,1,4.3.5,7.6.7,9.8.7v14.4c-3.8-.6-8.2-1.2-13.2-1.7-5-.5-11-.7-18-.7s-14.6,2.4-18.7,7.2c-4.2,4.8-6.2,13.4-6.2,25.9v29.3h56.2v14.9h-56.2v213.6h-22.6Z"></path><path class="cls-1" d="M5091,1424.1c-6.7,0-12.8-.9-18.2-2.6-5.4-1.8-10-4.5-13.7-8.2-3.7-3.7-6.4-8.4-8.2-14.2-1.8-5.8-2.6-12.8-2.6-21.1v-176.7h-21.1v-12.5l22.1-2.9,4.8-44.6h16.8v44.6h53.3v15.4h-53.3v172.8c0,9.6,1.8,17.5,5.3,23.8,3.5,6.2,10.7,9.4,21.6,9.4s9.8-.2,14.9-.5c5.1-.3,9-.6,11.5-1v15.4c-2.9.3-7.4.9-13.4,1.7-6.1.8-12.6,1.2-19.7,1.2Z"></path><path class="cls-1" d="M5156.2,1423.6v-302.5h22.1v83.1c4.2-7,10.1-12.5,17.8-16.3s17.4-5.8,29.3-5.8c17.3,0,29.9,3,37.9,8.9,8,5.9,13.1,13.7,15.4,23.3,2.2,9.6,3.4,19.8,3.4,30.7v178.6h-23v-174.8c0-5.1-.2-10.6-.5-16.3-.3-5.8-1.7-11.2-4.1-16.3-2.4-5.1-6.3-9.3-11.8-12.5-5.4-3.2-13.3-4.8-23.5-4.8s-17.4,1.5-23.3,4.6c-5.9,3-10.2,6.6-12.7,10.6-2.6,4-3.8,7.4-3.8,10.3v199.2h-23Z"></path><path class="cls-1" d="M5390.5,1427.9c-16,0-28.7-1.8-38.2-5.5-9.4-3.7-16.2-10.3-20.4-19.9-4.2-9.6-6.2-23.4-6.2-41.3v-121.5c0-22.1,4.7-37.2,14.2-45.4,9.4-8.2,25.5-12.2,48.2-12.2s38.3,4.1,47.8,12.2c9.4,8.2,14.2,23.3,14.2,45.4v60.5h-101.3v67.7c0,16.6,2.6,28.3,7.9,35,5.3,6.7,16.2,10.1,32.9,10.1s25-3.2,30-9.6c5-6.4,7.4-18.2,7.4-35.5v-28.8h23v21.6c0,17.6-2.1,31.3-6.2,41-4.2,9.8-10.6,16.6-19.2,20.4-8.6,3.8-20,5.8-34.1,5.8ZM5348.8,1287.3h78.3v-48c0-14.7-2.5-25.4-7.4-32.2-5-6.7-15.4-10.1-31.4-10.1s-26.2,3.4-31.4,10.1c-5.3,6.7-7.9,17.4-7.9,32.2v48Z"></path><path class="cls-1" d="M5587.4,1423.6v-237.6h18.7l3.4,24.5c2.6-9.3,8.6-16.4,18-21.4,9.4-5,19.1-7.4,29-7.4,17.3,0,29.9,3,37.9,9.1,8,6.1,13.1,13.9,15.4,23.5,2.2,9.6,3.4,19.8,3.4,30.7v178.6h-23v-174.8c0-6.1-.2-12.1-.5-18-.3-5.9-1.7-11.3-4.1-16.1s-6.3-8.6-11.8-11.5c-5.4-2.9-13.3-4.3-23.5-4.3s-16.7,1.7-22.3,5c-5.6,3.4-9.6,7.4-12,12-2.4,4.6-4.2,9-5.5,13.2v194.4h-23Z"></path><path class="cls-1" d="M5806.3,1427c-7,0-14.3-1-21.8-2.9-7.5-1.9-14-6.7-19.4-14.4-5.4-7.7-8.2-19.8-8.2-36.5v-20.6c0-16.3,5-29.4,14.9-39.4s23.2-18.9,39.8-26.9c10.9-5.4,20-10.4,27.4-14.9,7.4-4.5,12.9-9.4,16.6-14.9,3.7-5.4,5.5-12.3,5.5-20.6v-9.6c0-8.6-1.8-15.1-5.3-19.4-3.5-4.3-8.2-7.3-14.2-8.9-5.9-1.6-12.1-2.4-18.5-2.4-16,0-26.6,4.2-31.7,12.5-5.1,8.3-7.7,20.3-7.7,36v20.2h-20.6v-22.1c0-11.8,1.5-22.3,4.6-31.4,3-9.1,8.9-16.3,17.5-21.6,8.6-5.3,21.3-7.9,37.9-7.9s31.2,2.2,39.8,6.5c8.6,4.3,14.3,10.2,17,17.8,2.7,7.5,4.1,16.2,4.1,26.2v192h-22.6l-.5-30.7c-4.2,11.5-11.4,20.1-21.6,25.7-10.2,5.6-21.3,8.4-33.1,8.4ZM5814,1410.7c16.3,0,28.2-5.5,35.5-16.6,7.4-11,11-25.8,11-44.4v-79.7c-3.5,5.8-9.4,11-17.5,15.6-8.2,4.6-16.6,9.2-25.2,13.7-12.2,7-21.6,14.2-28.3,21.6-6.7,7.4-10.1,17.8-10.1,31.2v17.3c0,12.8,1.8,22.2,5.5,28.1,3.7,5.9,8.2,9.6,13.7,11,5.4,1.4,10.6,2.2,15.4,2.2Z"></path><path class="cls-1" d="M5980.6,1424.1c-6.7,0-12.8-.9-18.2-2.6-5.4-1.8-10-4.5-13.7-8.2-3.7-3.7-6.4-8.4-8.2-14.2-1.8-5.8-2.6-12.8-2.6-21.1v-176.7h-21.1v-12.5l22.1-2.9,4.8-44.6h16.8v44.6h53.3v15.4h-53.3v172.8c0,9.6,1.8,17.5,5.3,23.8,3.5,6.2,10.7,9.4,21.6,9.4s9.8-.2,14.9-.5c5.1-.3,9-.6,11.5-1v15.4c-2.9.3-7.4.9-13.4,1.7-6.1.8-12.6,1.2-19.7,1.2Z"></path><path class="cls-1" d="M6057.4,1155.7c-4.2,0-7.7-1.4-10.6-4.3-2.9-2.9-4.3-6.2-4.3-10.1s1.4-7.5,4.3-10.1c2.9-2.6,6.4-3.8,10.6-3.8s7.3,1.3,10.3,3.8c3,2.6,4.6,5.9,4.6,10.1s-1.5,7.2-4.6,10.1c-3,2.9-6.5,4.3-10.3,4.3ZM6045.9,1423.6v-237.6h22.6v237.6h-22.6Z"></path><path class="cls-1" d="M6179.8,1427c-14.7,0-26.7-2-36-6-9.3-4-16.1-11-20.4-20.9-4.3-9.9-6.5-23.4-6.5-40.3v-113.8c0-22.7,4.7-39,14.2-49,9.4-9.9,25.7-14.9,48.7-14.9s39.2,4.9,48.5,14.6c9.3,9.8,13.9,26.2,13.9,49.2v113.8c0,16.6-2.1,29.9-6.2,39.8-4.2,9.9-10.8,17-19.9,21.1-9.1,4.2-21.2,6.2-36.2,6.2ZM6179.8,1411.6c14.4,0,24.6-3.5,30.5-10.6,5.9-7,8.9-19.8,8.9-38.4v-116.7c0-17.3-2.9-29.7-8.6-37.2-5.8-7.5-16-11.3-30.7-11.3s-24.7,3.6-30.7,10.8c-6.1,7.2-9.1,19.8-9.1,37.7v116.7c0,18.2,3,31,9.1,38.2,6.1,7.2,16.3,10.8,30.7,10.8Z"></path><path class="cls-1" d="M6290.2,1423.6v-237.6h18.7l3.4,24.5c2.6-9.3,8.6-16.4,18-21.4,9.4-5,19.1-7.4,29-7.4,17.3,0,29.9,3,37.9,9.1,8,6.1,13.1,13.9,15.4,23.5,2.2,9.6,3.4,19.8,3.4,30.7v178.6h-23v-174.8c0-6.1-.2-12.1-.5-18-.3-5.9-1.7-11.3-4.1-16.1s-6.3-8.6-11.8-11.5c-5.4-2.9-13.3-4.3-23.5-4.3s-16.7,1.7-22.3,5c-5.6,3.4-9.6,7.4-12,12-2.4,4.6-4.2,9-5.5,13.2v194.4h-23Z"></path></g></g></g><g><path class="cls-6" d="M1241.4,1217.6c0-109.7-53.3-206.9-135.4-267.2V250c0-44.1-22.5-82.8-56.7-105.5-12.1-8-25.7-14-40.3-17.5h0c-49.2-1.7-58.9,40.3-61.1,55.8-3,20.6-10.3,45.2-10.3,45.2l-25.8-21.4-452.8,436.9,37.1,39-54.5,52.5s-24.3-12.5-47.6,10.8-11.8,50.8-11.8,50.8c-32.1,36.2-58.4,77.2-85,127.2-6.8,12.7-13.6,26.1-20.5,40-16.4,33-23.8,87.7-27.1,135.6v371c0,69.8,56.6,126.4,126.4,126.4h603.9c65.2,0,118.9-49.4,125.6-112.9-2.9-57-14.9-80.7-42-110.4-3.5-3.8-8.2-9-14-15.3-46.4-50.8-158.5-173.7-212.9-230.7-61.1-64.1-158.7-25-242.4-78.1-123.6-78.3-88.4-226.9-88.4-226.9l143.7,113.5,109.8-42,40.8-111.5-136.5-116.4c31.9-10.8,154.2-21.6,219,33.9,96.6,82.7,85,153.2,85.9,197.4,1,44.2,6.8,54.1,25.8,76.9,9.8,11.8,32.7,36.6,55.2,60.7,28.6,30.6,56.7,60.1,56.7,60.1h0c62.4,60.2,101.2,144.8,101.2,238.3s-.6,23-1.7,34.2c23-45.1,36-96.2,36-150.3l-.3.3ZM680.3,1552.1c-34.9,0-63.3-28.3-63.3-63.3s28.3-63.3,63.3-63.3,63.3,28.3,63.3,63.3-28.3,63.3-63.3,63.3Z"></path><path class="cls-4" d="M866.5,123.6h-490.7c-69.8,0-126.4,56.6-126.4,126.4v355.8c-79.6,62.7-130.8,160-130.8,269.3s13.6,109.6,37.7,156.5c-6.6-26.5-10.1-54.3-10.1-82.9,0-94.4,38.1-179.8,99.9-241.7h0c1.1-1.1,2.1-2.1,3.2-3.2h0c13.9-10,28.5-18.1,28.5-18.1l11.2,9.9c4.1,3.6,10.3,3.4,14.2-.4l38.3-38c3.9-3.9,4.1-10.1.5-14.2l-9.6-11,54.5-55.2,40.4,38.8,448.1-439.4-24.4-25.4s20.1-7.4,48.9-16.4c6.5-2,19.2-6.6,26.5-11.3,17.1-9.6,24.4-17.3,36.9-29.4-27.5,19-60.9,30.1-96.8,30.1v-.2ZM598.4,177.2c-9.1,0-16.5-7.4-16.5-16.5s7.4-16.5,16.5-16.5,16.5,7.4,16.5,16.5-7.4,16.5-16.5,16.5ZM740,163.9c0,7.3-5.9,13.3-13.3,13.3h-83.2c-7.3,0-13.3-5.9-13.3-13.3v-6.5c0-7.3,5.9-13.3,13.3-13.3h83.2c7.3,0,13.3,5.9,13.3,13.3v6.5Z"></path><path class="cls-2" d="M882.3,700.2c-64.8-55.5-187.1-44.7-219-33.9l136.5,116.4-40.8,111.5-109.8,42-143.7-113.5s-35.2,148.6,88.4,226.9c83.7,53,181.2,14,242.4,78.1,54.4,57,166.5,179.9,212.9,230.7v29.8H297v-464.3c26.6-50,53-91,85-127.2,0,0-11.5-27.5,11.8-50.8s47.6-10.8,47.6-10.8l54.5-52.5-37.1-39,452.8-436.9,25.8,21.4s7.4-24.6,10.3-45.2c2.2-15.4,11.9-57.5,61.1-55.8h0c14.6,3.5,28.2,9.4,40.3,17.5v890.7c-22.5-24.1-45.4-48.9-55.2-60.7-19-22.8-24.8-32.7-25.8-76.9-1-44.2,10.6-114.8-85.9-197.4h0Z"></path></g></g></g></g></svg>